<svg width="1301" height="127" viewBox="0 0 1301 127" fill="none" xmlns="http://www.w3.org/2000/svg">
<path fill-rule="evenodd" clip-rule="evenodd" d="M511.2 43.0996C515.8 43.0996 520.2 43.2992 524.4 43.6992C528.6 44.0992 532.5 44.7998 536.2 45.7998C539.8 46.7998 543.1 48.1995 546.1 49.8994C549.1 51.5994 551.6 53.8 553.7 56.5C555.8 59.1999 557.4 62.3002 558.5 66C559.6 69.6999 560.2 74 560.2 78.7998V103.3C560.2 107 561.1 109.6 563 111.1C564.8 112.6 567.3 113.3 570.5 113.3V121.3C570.1 121.7 569.4 122.199 568.4 122.699C567.4 123.199 566.1 123.7 564.5 124.1C562.9 124.5 561 124.899 558.8 125.199C556.6 125.499 554.1 125.699 551.3 125.699C547.9 125.699 544.8 125.499 542 125.199C539.3 124.899 536.9 124.199 534.9 123.399C532.9 122.499 531.2 121.399 529.8 119.899C528.5 118.399 527.4 116.5 526.7 114.3C524.4 116.3 521.7 118.1 518.8 119.5C515.9 120.9 512.8 122.1 509.5 123.1C506.2 124 502.9 124.699 499.4 125.199C495.9 125.599 492.5 125.899 489.2 125.899C487 125.899 484.7 125.8 482.3 125.6C479.9 125.4 477.6 124.999 475.3 124.399C473 123.799 470.9 123 468.8 122C466.8 121 465 119.699 463.4 118.199C461.8 116.699 460.6 114.799 459.7 112.699C458.8 110.399 458.4 107.9 458.4 105.1C458.4 101.4 459.2 98.1994 460.7 95.3994C462.2 92.5995 464.3 90.3994 466.9 88.3994C469.5 86.4995 472.5 84.8992 476 83.6992C479.5 82.4993 483.2 81.5994 487.1 80.8994C491 80.1994 495 79.8 499.1 79.5C503.2 79.2 507.2 79.0996 511.1 79.0996C513.3 79.0996 515.6 79.0992 518 79.1992C520.4 79.2992 522.9 79.3994 525.4 79.3994C525.3 76.0995 525 73.0994 524.5 70.3994C524 67.7995 523.2 65.5998 522.1 63.7998C521 61.9999 519.4 60.5992 517.4 59.6992C515.4 58.7992 512.8 58.2998 509.6 58.2998C507.6 58.2998 505.5 58.5996 503.5 59.0996C501.5 59.5996 499.7 60.4 498.1 61.5C496.5 62.6 495.1 64 494 65.7998C492.9 67.4997 492.1 69.6994 491.8 72.1992L463.8 68.3994C463.8 65.1995 464.4 62.3994 465.7 59.8994C467 57.3995 468.7 55.1997 471 53.2998C473.2 51.3998 475.9 49.8 478.9 48.5C481.9 47.2001 485.2 46.1994 488.7 45.3994C492.2 44.5994 495.9 43.9992 499.7 43.6992C503.5 43.3992 507.4 43.0996 511.2 43.0996ZM522 91.1992C517 91.1992 512.8 91.3994 509.3 91.8994C505.8 92.3994 503 93.1 500.8 94C498.6 94.9 497 96.0995 496 97.3994C494.9 98.7994 494.4 100.3 494.4 102C494.4 103.3 494.7 104.4 495.4 105.399C496.1 106.399 496.9 107.3 498 108C499.1 108.7 500.401 109.2 501.9 109.6C503.4 110 505 110.199 506.6 110.199C508.3 110.199 510.2 110 512.3 109.6C514.4 109.2 516.4 108.5 518.3 107.6C520.2 106.7 521.8 105.499 523.1 103.899C524.4 102.399 525.2 100.499 525.4 98.3994V91.2998C524.7 91.2998 524.1 91.1992 523.6 91.1992H522Z" fill="black"/>
<path d="M671.601 76.3994L654.2 78.5C653.3 75.5 652.101 72.7992 650.601 70.1992C649.101 67.5994 647.2 65.3995 645.101 63.5996C642.901 61.6996 640.5 60.2992 637.7 59.1992C634.9 58.0993 632 57.5996 628.7 57.5996C625.7 57.5996 622.8 57.9994 619.8 58.8994C616.8 59.7994 614.2 61.1994 611.9 63.1992C609.6 65.1992 607.6 67.8998 606.2 71.2998C604.7 74.6998 604 78.9001 604 84C604 88.2996 604.8 91.9994 606.3 95.1992C607.8 98.3992 609.8 101.1 612.3 103.3C614.8 105.5 617.6 107.1 620.8 108.1C624 109.2 627.3 109.699 630.8 109.699C633.7 109.699 636.801 109.499 640.101 109.199C643.4 108.899 646.6 108.199 649.8 107.199C653 106.199 656 104.899 658.9 103.199C661.8 101.499 664.3 99.1998 666.4 96.5L673.5 102.1C672.1 105.6 670 108.9 667 111.8C664.1 114.7 660.6 117.2 656.5 119.3C652.4 121.4 647.7 122.999 642.601 124.199C637.401 125.399 631.9 125.899 626 125.899C616.7 125.899 608.4 124.999 601.2 123.199C593.9 121.399 587.8 118.699 582.8 115.199C577.8 111.699 574 107.299 571.3 102.1C568.5 96.6996 567.2 90.6994 567.2 83.8994C567.2 77.2995 568.6 71.4994 571.5 66.3994C574.4 61.2995 578.3 57.0996 583.3 53.5996C588.3 50.1996 594.201 47.5998 601.101 45.7998C607.9 43.9999 615.3 43.0996 623.3 43.0996C630.9 43.0996 637.501 43.8994 643.101 45.3994C648.7 46.8994 653.3 48.8 657 51L671.601 42.5996V76.3994Z" fill="black"/>
<path d="M744.6 20.3008C748.2 20.3008 751.9 20.501 755.5 21.001C759.1 21.501 762.7 22.101 766.1 23.001C769.5 23.801 772.8 24.801 776 26.001C779.1 27.201 782 28.4008 784.7 29.8008L790 23.001H805.6V57.001H787.9C785.9 53.501 783.6 50.4011 780.8 47.7012C778 45.0012 775 42.7004 771.7 40.9004C768.4 39.0004 764.8 37.6012 761.1 36.7012C757.4 35.7012 753.5 35.3008 749.6 35.3008C745.3 35.3008 741.2 36.001 737.3 37.501C733.4 39.001 730 41.3008 727 44.3008C724.1 47.4008 721.7 51.301 720 56.001C718.3 60.7009 717.4 66.3009 717.4 72.8008C717.4 79.0008 718.3 84.4012 720.2 89.2012C722.1 93.9009 724.6 97.9007 727.8 101.101C731 104.301 734.6 106.701 738.9 108.301C743.1 109.901 747.5 110.701 752.2 110.701C756.3 110.701 759.8 110.401 762.8 109.801C765.8 109.201 768.5 108.201 770.9 106.701V89.3008L750.6 69.8008H806.6V123.101H790L786.2 116.101C783.5 117.901 780.5 119.401 777.4 120.601C774.3 121.801 771 122.801 767.6 123.601C764.2 124.401 760.7 124.901 757.1 125.301C753.5 125.601 749.9 125.801 746.2 125.801C739.9 125.801 733.8 125.401 727.9 124.701C722 124.001 716.4 122.801 711.2 121.101C706 119.501 701.2 117.301 696.9 114.701C692.6 112.101 688.9 108.901 685.7 105.101C682.6 101.401 680.2 97.0008 678.4 92.001C676.8 87.101 676 81.4009 676 75.001C676 69.001 676.9 63.4008 678.6 58.3008C680.3 53.2008 682.7 48.7006 685.8 44.6006C688.9 40.6007 692.5 37.0009 696.8 34.001C701.1 31.001 705.7 28.4004 710.8 26.4004C715.9 24.4004 721.3 22.8008 727 21.8008C732.7 20.8008 738.6 20.3008 744.6 20.3008Z" fill="black"/>
<path fill-rule="evenodd" clip-rule="evenodd" d="M1129.8 0.5C1132.3 0.5 1134.7 1.00039 1136.9 1.90039C1139.1 2.90036 1141 4.1999 1142.7 5.7998C1144.3 7.49976 1145.7 9.39968 1146.6 11.5996C1147.6 13.7996 1148 16.2002 1148 18.7002C1148 21.2 1147.5 23.6 1146.6 25.7998C1145.6 27.9997 1144.3 29.8997 1142.7 31.5996C1141 33.1996 1139.1 34.5 1136.9 35.5C1134.7 36.5 1132.3 36.9004 1129.8 36.9004C1127.3 36.9003 1124.9 36.3999 1122.7 35.5C1120.5 34.5 1118.6 33.2996 1116.9 31.5996C1115.39 30.0941 1114.15 28.3232 1113.18 26.2031L1093.8 31.2002C1093.9 30.5002 1094 29.8998 1094 29.2998C1094 28.6999 1094.1 28.0999 1094.1 27.5C1094.1 25.7 1093.8 24 1093.3 22.5C1092.8 21.0001 1092 19.6996 1091 18.5996C1090 17.4997 1088.8 16.5999 1087.3 16C1085.8 15.4001 1084.2 15.0996 1082.4 15.0996C1079.5 15.0996 1077.2 15.8003 1075.6 17.2002C1073.9 18.6002 1072.6 20.6 1071.8 23C1070.9 25.4999 1070.4 28.2999 1070.1 31.5996C1069.9 34.8996 1069.8 38.4999 1069.8 42.2998V46.0996H1095.7V60.2998H1069.8V106.3L1095.7 123.3H940.3L941.423 122.26L891.4 124.301V108.801C887.9 114.301 883.4 118.5 878 121.4C872.5 124.3 866.3 125.801 859.4 125.801C848.6 125.801 840.2 122.5 834.4 115.9C828.6 109.3 825.601 99.5005 825.601 86.6006V65H825.5L806.601 48L858.8 45.9004V85.2002C858.8 88.2002 859.101 91.0006 859.601 93.6006C860.201 96.2005 861 98.6007 862.2 100.601C863.4 102.6 864.9 104.201 866.8 105.301C868.7 106.401 870.9 107 873.5 107C876.1 107 878.5 106.401 880.7 105.301C882.9 104.201 884.8 102.5 886.3 100.4C887.9 98.2004 889.1 95.6004 890 92.4004C890.9 89.2004 891.3 85.6005 891.3 81.6006V65L872.9 48L924.601 45.9004V106.601L942.165 121.573L959 106V60H940.7V45.9004H959V36.7998C959 30.7999 960.2 25.5996 962.7 21.0996C965.2 16.5999 968.5 12.9003 972.8 9.90039C977 6.90047 981.9 4.70019 987.399 3.2002C992.899 1.7002 998.7 1 1004.8 1C1007.1 1 1009.6 1.09981 1012.3 1.2998C1015 1.4998 1017.8 1.8004 1020.6 2.40039C1023.4 2.90038 1026 3.70021 1028.6 4.7002C1031.2 5.7002 1033.5 6.9 1035.5 8.5C1037.5 10.1 1039.1 12.0002 1040.3 14.2002C1040.98 15.4472 1041.47 16.8551 1041.76 18.4053C1044.01 15.0974 1046.79 12.2786 1050.2 9.90039C1054.4 6.90047 1059.3 4.70019 1064.8 3.2002C1070.3 1.7002 1076.1 1 1082.2 1C1084.5 1 1087 1.09981 1089.7 1.2998C1092.4 1.4998 1095.2 1.80041 1098 2.40039C1100.8 2.90038 1103.4 3.70021 1106 4.7002C1108.6 5.7002 1110.9 6.9 1112.9 8.5C1113.31 8.82504 1113.7 9.1629 1114.07 9.5127C1114.85 8.16568 1115.76 6.93764 1116.9 5.7998C1118.5 4.1999 1120.4 2.80035 1122.7 1.90039C1124.9 0.900439 1127.3 0.500039 1129.8 0.5ZM1018.3 60.2998H992.399V106.3L1017.95 123.069L1036.4 106V60H1018.3V60.2998ZM1005 15.0996C1002.1 15.0996 999.8 15.8003 998.2 17.2002C996.5 18.6002 995.199 20.6 994.399 23C993.499 25.4999 993 28.2999 992.7 31.5996C992.5 34.8996 992.399 38.4999 992.399 42.2998V46.0996H1018.1V45.9004H1036.4V36.7998C1036.4 32.7054 1036.96 28.9836 1038.11 25.6025L1016.4 31.2002C1016.5 30.5002 1016.6 29.8998 1016.6 29.2998C1016.6 28.6999 1016.7 28.0999 1016.7 27.5C1016.7 25.7 1016.4 24 1015.9 22.5C1015.4 21.0001 1014.6 19.6996 1013.6 18.5996C1012.6 17.4997 1011.4 16.5999 1009.9 16C1008.4 15.4001 1006.8 15.0996 1005 15.0996Z" fill="black"/>
<path d="M277.5 91C279.9 91 282.2 91.5004 284.3 92.4004C286.4 93.3003 288.3 94.5997 289.8 96.0996C291.4 97.6995 292.6 99.4998 293.5 101.6C294.4 103.7 294.9 106 294.9 108.4C294.9 110.8 294.4 113.1 293.5 115.2C292.6 117.3 291.3 119.2 289.8 120.7C288.2 122.3 286.4 123.5 284.3 124.4C282.2 125.3 279.9 125.8 277.5 125.8C275.1 125.8 272.8 125.3 270.7 124.4C268.6 123.5 266.7 122.3 265.2 120.7C263.6 119.1 262.4 117.3 261.5 115.2C260.6 113.1 260.101 110.8 260.101 108.4C260.101 106 260.6 103.7 261.5 101.6C262.4 99.4997 263.6 97.5995 265.2 96.0996C266.8 94.4997 268.6 93.3003 270.7 92.4004C272.8 91.5004 275.1 91 277.5 91Z" fill="black"/>
<path d="M85.4004 76.8994L116.9 23.0996H170.5L148.7 40.0996V105.399L167.868 122.113L185.101 106V63.5996L166.8 48L218.3 45.8994V60.5996C220.1 57.6997 222.2 55.1999 224.5 53C226.8 50.8001 229.4 49 232 47.5C234.7 46 237.5 44.8992 240.4 44.1992C243.3 43.4993 246.2 43.0996 249.2 43.0996C253.1 43.0996 256.4 43.7996 259.2 45.0996C262 46.3996 264.301 48.1996 266.101 50.5996C267.9 52.8995 269.301 55.6996 270.101 58.8994C271.001 62.0994 271.4 65.5995 271.4 69.3994C271.4 70.5994 271.4 71.7996 271.3 73.0996C271.2 74.3996 271 75.5998 270.7 76.7998L245.2 79.0996C245.4 78.3998 245.5 77.5999 245.5 77V75C245.5 73.1 245.3 71.3998 244.8 69.7998C244.4 68.1998 243.7 66.8992 242.8 65.6992C241.9 64.5994 240.8 63.6995 239.5 63.0996C238.2 62.4997 236.6 62.1993 234.9 62.1992C233 62.1992 231.3 62.5998 229.8 63.2998C228.3 63.9998 226.9 65 225.601 66.2998C224.301 67.5998 223.2 68.9993 222.3 70.6992C221.3 72.3991 220.6 74.0995 219.9 75.8994C219.3 77.6994 218.8 79.4998 218.5 81.2998C218.2 83.0997 218 84.7995 218 86.3994V105.6L242.3 123.3H166.601L166.814 123.1H93.9004L113.4 105.399V69.2998L83.4004 123.1H73.2998L39.7998 69.7998V105.399L60.7998 123H2.59961L20.7998 105.399V43.2998L0 23.0996H50.5L85.4004 76.8994Z" fill="black"/>
<path d="M1247.5 43.1992C1252.9 43.1992 1257.7 43.9992 1261.9 45.6992C1266.1 47.3992 1269.6 49.7996 1272.5 53.0996C1275.4 56.3996 1277.5 60.4995 1279 65.3994C1280.5 70.2993 1281.2 75.9992 1281.2 82.499V106.199L1300.1 123.199H1235.1L1247.9 106.199V83.7988C1247.9 80.7991 1247.6 77.9992 1247.1 75.3994C1246.5 72.6994 1245.7 70.3994 1244.5 68.3994C1243.3 66.3994 1241.8 64.7992 1239.9 63.6992C1238 62.4992 1235.8 61.999 1233.2 61.999C1230.6 61.999 1228.2 62.5992 1226 63.6992C1223.8 64.7992 1221.9 66.4993 1220.4 68.6992C1218.8 70.8992 1217.6 73.4992 1216.7 76.6992C1215.8 79.7992 1215.4 83.3991 1215.4 87.499V106.299L1228.2 123.299H1163.2L1163.42 123.1H1096.1L1115.1 106V63.5996L1096.8 48L1147.6 45.9004V106.1L1164.95 121.709L1182.3 105.999V63.5996L1164 47.999L1215.5 45.8994V60.999C1218.8 55.299 1223.3 50.8988 1228.7 47.7988C1234.2 44.6989 1240.4 43.1993 1247.5 43.1992Z" fill="black"/>
<path d="M378.101 76.8994L409.601 23.0996H463.2L441.4 40.0996V105.399L461.7 123.1H386.5L406 105.399V69.2998L376 123.1H365.9L332.4 69.8994V105.5L353.4 123.1H295.2L313.5 105.399V43.2998L292.7 23.0996H343.2L378.101 76.8994Z" fill="black"/>
</svg>
